<svg data-v-423bf9ae="" xmlns="http://www.w3.org/2000/svg" viewBox="0 0 430.8503726053818 60" class="font"><!----><!----><!----><g data-v-423bf9ae="" id="a4c70c22-d85f-4465-a83c-3f3a257816ed" fill="black" transform="matrix(6.458557615325557,0,0,6.458557615325557,-7.298171292869,-8.78363761476814)"><path d="M4.63 10.50L1.13 10.50L1.13 1.36L4.63 1.36L4.63 1.36Q5.66 1.36 6.47 1.71L6.47 1.71L6.47 1.71Q7.28 2.06 7.85 2.67L7.85 2.67L7.85 2.67Q8.41 3.28 8.72 4.11L8.72 4.11L8.72 4.11Q9.03 4.94 9.03 5.92L9.03 5.92L9.03 5.92Q9.03 6.92 8.72 7.75L8.72 7.75L8.72 7.75Q8.41 8.58 7.85 9.20L7.85 9.20L7.85 9.20Q7.28 9.81 6.47 10.16L6.47 10.16L6.47 10.16Q5.66 10.50 4.63 10.50L4.63 10.50ZM3.12 2.91L3.12 8.95L4.34 8.95L4.34 8.95Q4.97 8.95 5.45 8.71L5.45 8.71L5.45 8.71Q5.94 8.48 6.27 8.09L6.27 8.09L6.27 8.09Q6.59 7.69 6.77 7.13L6.77 7.13L6.77 7.13Q6.94 6.58 6.94 5.92L6.94 5.92L6.94 5.92Q6.94 5.28 6.77 4.72L6.77 4.72L6.77 4.72Q6.59 4.17 6.27 3.77L6.27 3.77L6.27 3.77Q5.94 3.37 5.45 3.14L5.45 3.14L5.45 3.14Q4.97 2.91 4.34 2.91L4.34 2.91L3.12 2.91ZM13.96 3.12L13.96 3.12L13.96 3.12Q14.52 3.12 15.18 3.29L15.18 3.29L15.18 3.29Q15.83 3.46 16.41 3.88L16.41 3.88L16.41 3.88Q16.98 4.30 17.37 5.03L17.37 5.03L17.37 5.03Q17.75 5.75 17.75 6.89L17.75 6.89L17.75 6.89Q17.75 8.02 17.37 8.75L17.37 8.75L17.37 8.75Q16.98 9.48 16.41 9.90L16.41 9.90L16.41 9.90Q15.83 10.32 15.18 10.49L15.18 10.49L15.18 10.49Q14.52 10.65 13.96 10.65L13.96 10.65L13.96 10.65Q13.40 10.65 12.74 10.49L12.74 10.49L12.74 10.49Q12.08 10.32 11.52 9.90L11.52 9.90L11.52 9.90Q10.95 9.48 10.57 8.75L10.57 8.75L10.57 8.75Q10.19 8.02 10.19 6.89L10.19 6.89L10.19 6.89Q10.19 5.75 10.57 5.03L10.57 5.03L10.57 5.03Q10.95 4.30 11.52 3.88L11.52 3.88L11.52 3.88Q12.08 3.46 12.74 3.29L12.74 3.29L12.74 3.29Q13.40 3.12 13.96 3.12ZM13.96 9.25L13.96 9.25L13.96 9.25Q14.74 9.25 15.27 8.64L15.27 8.64L15.27 8.64Q15.79 8.02 15.79 6.89L15.79 6.89L15.79 6.89Q15.79 5.75 15.27 5.14L15.27 5.14L15.27 5.14Q14.74 4.54 13.96 4.54L13.96 4.54L13.96 4.54Q13.20 4.54 12.68 5.14L12.68 5.14L12.68 5.14Q12.17 5.75 12.17 6.89L12.17 6.89L12.17 6.89Q12.17 7.45 12.31 7.89L12.31 7.89L12.31 7.89Q12.45 8.33 12.68 8.63L12.68 8.63L12.68 8.63Q12.92 8.93 13.25 9.09L13.25 9.09L13.25 9.09Q13.58 9.25 13.96 9.25ZM22.16 9.20L22.16 9.20L22.16 9.20Q22.57 9.20 22.92 9.13L22.92 9.13L22.92 9.13Q23.09 9.09 23.25 9.04L23.25 9.04L23.27 10.50L23.27 10.50Q23.02 10.54 22.74 10.58L22.74 10.58L22.74 10.58Q22.50 10.61 22.18 10.63L22.18 10.63L22.18 10.63Q21.85 10.65 21.49 10.65L21.49 10.65L21.49 10.65Q20.96 10.60 20.55 10.33L20.55 10.33L20.55 10.33Q20.20 10.09 19.91 9.63L19.91 9.63L19.91 9.63Q19.63 9.16 19.63 8.30L19.63 8.30L19.63 5.36L18.26 5.36L18.26 3.99L19.63 3.99L19.63 1.97L21.49 1.55L21.49 3.99L23.18 3.99L23.18 5.36L21.52 5.36L21.52 8.20L21.52 8.20Q21.52 8.39 21.57 8.56L21.57 8.56L21.57 8.56Q21.62 8.74 21.71 8.88L21.71 8.88L21.71 8.88Q21.80 9.02 21.92 9.11L21.92 9.11L21.92 9.11Q22.04 9.20 22.16 9.20ZM30.74 10.50L29.96 8.40L26.78 8.40L26.00 10.50L23.87 10.50L27.23 1.36L29.53 1.36L32.89 10.50L30.74 10.50ZM27.24 6.64L29.51 6.64L29.51 6.64Q29.51 6.64 29.39 6.34L29.39 6.34L29.39 6.34Q29.27 6.05 29.10 5.61L29.10 5.61L29.10 5.61Q28.92 5.17 28.72 4.66L28.72 4.66L28.72 4.66Q28.52 4.16 28.38 3.77L28.38 3.77L28.38 3.77Q28.06 4.56 27.80 5.19L27.80 5.19L27.80 5.19Q27.69 5.46 27.59 5.72L27.59 5.72L27.59 5.72Q27.50 5.98 27.41 6.18L27.41 6.18L27.41 6.18Q27.33 6.38 27.29 6.51L27.29 6.51L27.29 6.51Q27.24 6.64 27.24 6.64L27.24 6.64ZM36.92 9.20L36.92 9.20L36.92 9.20Q37.32 9.20 37.67 9.13L37.67 9.13L37.67 9.13Q37.84 9.09 38.01 9.04L38.01 9.04L38.02 10.50L38.02 10.50Q37.77 10.54 37.49 10.58L37.49 10.58L37.49 10.58Q37.25 10.61 36.93 10.63L36.93 10.63L36.93 10.63Q36.61 10.65 36.25 10.65L36.25 10.65L36.25 10.65Q35.71 10.60 35.31 10.33L35.31 10.33L35.31 10.33Q34.96 10.09 34.67 9.63L34.67 9.63L34.67 9.63Q34.38 9.16 34.38 8.30L34.38 8.30L34.38 5.36L33.01 5.36L33.01 3.99L34.38 3.99L34.38 1.97L36.25 1.55L36.25 3.99L37.94 3.99L37.94 5.36L36.27 5.36L36.27 8.20L36.27 8.20Q36.27 8.39 36.32 8.56L36.32 8.56L36.32 8.56Q36.37 8.74 36.46 8.88L36.46 8.88L36.46 8.88Q36.55 9.02 36.67 9.11L36.67 9.11L36.67 9.11Q36.79 9.20 36.92 9.20ZM42.41 9.20L42.41 9.20L42.41 9.20Q42.81 9.20 43.16 9.13L43.16 9.13L43.16 9.13Q43.33 9.09 43.50 9.04L43.50 9.04L43.51 10.50L43.51 10.50Q43.26 10.54 42.98 10.58L42.98 10.58L42.98 10.58Q42.74 10.61 42.42 10.63L42.42 10.63L42.42 10.63Q42.10 10.65 41.73 10.65L41.73 10.65L41.73 10.65Q41.20 10.60 40.80 10.33L40.80 10.33L40.80 10.33Q40.45 10.09 40.16 9.63L40.16 9.63L40.16 9.63Q39.87 9.16 39.87 8.30L39.87 8.30L39.87 5.36L38.50 5.36L38.50 3.99L39.87 3.99L39.87 1.97L41.73 1.55L41.73 3.99L43.43 3.99L43.43 5.36L41.76 5.36L41.76 8.20L41.76 8.20Q41.76 8.39 41.81 8.56L41.81 8.56L41.81 8.56Q41.86 8.74 41.95 8.88L41.95 8.88L41.95 8.88Q42.04 9.02 42.16 9.11L42.16 9.11L42.16 9.11Q42.28 9.20 42.41 9.20ZM48.44 10.65L48.44 10.65L48.44 10.65Q47.28 10.65 46.52 10.35L46.52 10.35L46.52 10.35Q45.77 10.04 45.31 9.52L45.31 9.52L45.31 9.52Q44.86 9.00 44.67 8.32L44.67 8.32L44.67 8.32Q44.49 7.64 44.49 6.89L44.49 6.89L44.49 6.89Q44.49 6.22 44.67 5.54L44.67 5.54L44.67 5.54Q44.86 4.87 45.26 4.33L45.26 4.33L45.26 4.33Q45.65 3.79 46.30 3.46L46.30 3.46L46.30 3.46Q46.94 3.12 47.87 3.12L47.87 3.12L47.87 3.12Q48.85 3.12 49.50 3.46L49.50 3.46L49.50 3.46Q50.15 3.79 50.54 4.33L50.54 4.33L50.54 4.33Q50.93 4.87 51.09 5.54L51.09 5.54L51.09 5.54Q51.25 6.22 51.25 6.89L51.25 6.89L51.25 7.52L46.30 7.52L46.30 7.52Q46.30 8.27 46.84 8.76L46.84 8.76L46.84 8.76Q47.38 9.25 48.31 9.25L48.31 9.25L48.31 9.25Q48.85 9.25 49.29 9.14L49.29 9.14L49.29 9.14Q49.74 9.03 50.06 8.89L50.06 8.89L50.06 8.89Q50.43 8.74 50.74 8.53L50.74 8.53L50.74 10.09L50.74 10.09Q50.74 10.11 50.55 10.19L50.55 10.19L50.55 10.19Q50.37 10.28 50.06 10.38L50.06 10.38L50.06 10.38Q49.76 10.49 49.34 10.57L49.34 10.57L49.34 10.57Q48.92 10.65 48.44 10.65ZM46.30 6.19L49.48 6.19L49.48 6.19Q49.48 5.95 49.41 5.66L49.41 5.66L49.41 5.66Q49.35 5.38 49.17 5.12L49.17 5.12L49.17 5.12Q49 4.87 48.69 4.70L48.69 4.70L48.69 4.70Q48.37 4.54 47.87 4.54L47.87 4.54L47.87 4.54Q47.43 4.54 47.13 4.70L47.13 4.70L47.13 4.70Q46.83 4.87 46.65 5.12L46.65 5.12L46.65 5.12Q46.47 5.38 46.38 5.66L46.38 5.66L46.38 5.66Q46.30 5.95 46.30 6.19L46.30 6.19ZM56.99 3.12L56.99 3.12L56.99 3.12Q57.64 3.12 58.10 3.34L58.10 3.34L58.10 3.34Q58.56 3.56 58.86 3.93L58.86 3.93L58.86 3.93Q59.16 4.31 59.30 4.83L59.30 4.83L59.30 4.83Q59.44 5.35 59.44 5.95L59.44 5.95L59.44 10.50L57.57 10.50L57.57 6.58L57.57 6.58Q57.57 5.54 57.29 5.05L57.29 5.05L57.29 5.05Q57.01 4.56 56.32 4.56L56.32 4.56L56.32 4.56Q55.50 4.56 55.10 5.25L55.10 5.25L55.10 5.25Q54.70 5.94 54.70 7.06L54.70 7.06L54.70 10.50L52.82 10.50L52.82 3.29L54.22 3.29L54.60 4.27L54.60 4.27Q54.74 4.12 54.91 3.91L54.91 3.91L54.91 3.91Q55.08 3.71 55.34 3.54L55.34 3.54L55.34 3.54Q55.59 3.36 55.99 3.24L55.99 3.24L55.99 3.24Q56.39 3.12 56.99 3.12ZM63.77 3.12L63.77 3.12L63.77 3.12Q64.30 3.12 64.72 3.30L64.72 3.30L64.72 3.30Q65.13 3.47 65.41 3.67L65.41 3.67L65.41 3.67Q65.73 3.92 65.97 4.21L65.97 4.21L65.97 1.55L67.84 1.55L67.84 10.50L66.39 10.50L66.02 9.53L66.02 9.53Q65.81 9.84 65.49 10.09L65.49 10.09L65.49 10.09Q65.21 10.30 64.78 10.48L64.78 10.48L64.78 10.48Q64.36 10.65 63.77 10.65L63.77 10.65L63.77 10.65Q62.94 10.65 62.37 10.35L62.37 10.35L62.37 10.35Q61.80 10.05 61.44 9.55L61.44 9.55L61.44 9.55Q61.08 9.04 60.92 8.37L60.92 8.37L60.92 8.37Q60.76 7.69 60.76 6.93L60.76 6.93L60.76 6.93Q60.76 6.17 60.92 5.49L60.92 5.49L60.92 5.49Q61.08 4.80 61.44 4.28L61.44 4.28L61.44 4.28Q61.80 3.75 62.37 3.44L62.37 3.44L62.37 3.44Q62.94 3.12 63.77 3.12ZM64.36 9.18L64.36 9.18L64.36 9.18Q65.03 9.18 65.50 8.64L65.50 8.64L65.50 8.64Q65.97 8.09 65.97 6.93L65.97 6.93L65.97 6.93Q65.97 5.78 65.50 5.18L65.50 5.18L65.50 5.18Q65.03 4.58 64.36 4.58L64.36 4.58L64.36 4.58Q64.02 4.58 63.73 4.73L63.73 4.73L63.73 4.73Q63.43 4.89 63.22 5.18L63.22 5.18L63.22 5.18Q63 5.47 62.87 5.92L62.87 5.92L62.87 5.92Q62.73 6.36 62.73 6.93L62.73 6.93L62.73 6.93Q62.73 7.50 62.87 7.93L62.87 7.93L62.87 7.93Q63 8.36 63.22 8.64L63.22 8.64L63.22 8.64Q63.43 8.92 63.73 9.05L63.73 9.05L63.73 9.05Q64.02 9.18 64.36 9.18Z"></path></g><!----><!----></svg>